<?xml version="1.0" encoding="utf-8" ?>
<svg xmlns="http://www.w3.org/2000/svg" xmlns:xlink="http://www.w3.org/1999/xlink" width="1024" height="1024">
	<path fill="#918E5D" d="M226.368 109.963L233.647 110.025C256.184 110.357 288.414 112.181 310.112 117.248C311.717 117.576 313.529 117.777 315.076 118.279C346.115 125.245 369.619 135.519 396.617 152.346C401.388 155.32 409.243 159.617 412.817 163.68C414.57 165.261 416.296 166.895 418.116 168.398C421.077 170.794 424.36 173.514 426.726 176.492C428.523 178.171 430.296 179.877 432.042 181.609C453.545 203.924 473.627 231.407 483.778 260.915L486.656 268.772C492.435 290.058 496.743 311.434 501.453 332.953L502.448 337.722C504.385 345.751 506.016 353.924 508.414 361.827L508.533 361.496C511.187 354.339 512.107 345.959 513.574 338.451C517.975 315.919 521.37 292.287 531.247 271.297C531.753 269.637 532.481 268.044 533.148 266.443C546.094 238.384 561.297 217.691 583.925 196.904C589.417 191.858 596.322 185.511 602.934 182.085C605.307 179.629 608.987 177.745 611.92 175.99C662.632 143.764 716.844 138.303 775.346 143.038C777.846 143.056 780.141 143.159 782.609 143.653C793.791 144.807 819.377 145.721 826.6 155.119C829.428 158.799 829.335 164.103 828.641 168.476C827.389 176.356 824.59 184.269 822.684 192.046C818.105 210.727 812.322 230.03 804.228 247.522C788.815 280.832 762.731 310.999 732.924 332.242C722.568 339.623 711.775 345.308 700.107 350.293C697.948 351.218 695.77 352.098 693.574 352.933C668.059 362.778 639.598 368.23 612.273 368.94C600.169 369.255 587.561 368.101 575.558 369.121L573.997 368.561L573.404 368.55C566.817 368.366 545.861 363.998 541.474 365.977C536.647 371.365 533.935 379.363 531.993 386.24C522.563 419.644 526.724 453.236 526.528 487.386C526.403 509.189 524.987 531.365 526.097 553.119C526.281 556.721 526.605 560.634 527.816 564.043C536.118 566.61 544.908 567.802 553.389 569.701C560.4 571.27 567.51 573.557 574.299 575.9C617.854 590.926 664.687 624.994 686.464 666.259C700.959 693.725 706.614 721.821 697.062 752.227C695.729 756.471 693.863 760.683 692.675 764.949C690.787 769.305 689.076 773.903 686.874 778.102C672.853 805.064 651.089 824.971 625.624 841.054C618.803 845.362 610.511 848.626 604.33 853.639C617.484 853.176 630.781 853.575 643.948 853.578L717.138 853.428L765.14 853.337C772.721 853.322 780.976 852.518 788.447 853.48C791.998 853.937 795.314 855.196 797.906 857.731C800.267 860.04 801.771 863.214 801.688 866.55C801.594 870.32 799.562 873.79 796.765 876.223C792.198 880.197 788.313 879.944 782.85 880.91L778.647 880.834C754.39 881.618 729.888 880.893 705.604 880.939L553.826 880.868C550.738 881.149 547.492 880.941 544.385 880.906C519.673 880.988 494.961 880.918 470.25 880.697L371.596 880.948L275.679 880.956C259.823 880.943 243.88 881.324 228.035 880.912C224.748 880.827 219.337 880.877 216.357 879.512C212.987 877.968 211.207 874.614 209.755 871.399C209.301 869.382 208.982 867.319 208.948 865.247C208.903 862.466 209.625 860.519 211.527 858.528C213.903 855.637 217.199 854.342 220.779 853.715C230.948 851.936 244.425 853.369 254.996 853.413C266.664 853.462 366.125 854.472 369.544 852.579C366.188 848.348 355.424 844.283 350.007 841.224C324.626 826.893 297.627 804.492 284.878 777.801C269.86 746.361 268.414 715.866 279.962 683.066C283.738 674.798 287.933 665.934 293.563 658.761C295.632 655.406 298.042 652.309 300.456 649.2C334.38 605.501 387.631 578.565 441.555 569.349C456.842 566.736 472.31 566.482 487.63 564.566C490.254 564.44 492.735 564.245 495.322 563.754C497.182 557.193 496.024 532.935 496.105 524.244C496.274 512.59 496.601 500.938 497.087 489.292C496.906 484.609 497.039 479.877 497.034 475.189C497.349 437.819 497.389 398.38 481.995 363.561C480.213 359.531 478.236 353.805 475.247 350.596C474.225 349.498 472.95 349.297 471.51 349.238C467.955 349.092 464.171 349.682 460.596 349.852C452.239 350.329 443.87 350.549 435.5 350.513C429.906 351.191 422.476 350.935 416.904 350.032C408.955 350.066 400.472 349.135 392.632 347.823C388.383 347.205 384.145 346.795 379.928 345.95C373.452 345.644 366.207 343.394 359.817 341.988C316.306 332.418 273.636 311.069 243.032 278.286L240.931 276.372C238.922 274.761 237.351 272.714 235.698 270.752C201.619 229.439 183.628 190.415 177.454 136.925C177.513 135.611 177.37 134.245 177.312 132.929C177.155 131.106 176.979 129.272 176.941 127.442C176.846 122.868 178.048 118.5 181.354 115.2C183.523 113.035 186.217 111.702 189.173 110.975C198.258 108.74 216.308 110.115 226.368 109.963ZM353.039 632.511L344.58 638.844C324.405 655.65 307.75 675.234 299.878 700.776C298.278 705.968 298.683 711.866 297.091 716.865L296.819 724.134C298.125 745.657 306.995 764.155 319.966 781.07C323.648 785.872 327.667 790.906 332.221 794.922C334.439 796.879 345.236 804.757 346.061 806.056C348.114 807.35 350.135 808.618 352.051 810.113C376.873 824.885 404.253 837.216 432.559 843.479C438.139 844.635 443.843 845.643 449.358 847.068C453.221 847.885 457.304 848.184 461.222 848.711C494.788 853.225 532.612 852.205 564.613 840.166C566.122 839.933 567.681 839.379 569.158 838.967C592.971 830.074 614.4 818.142 633.163 800.877C648.748 786.536 662.212 766.614 668.837 746.467C669.881 743.289 671.361 739.331 671.357 735.953C671.355 734.797 671.281 735.01 670.559 734.267C662.366 731.484 646.081 730.96 636.784 729.799C619.797 727.677 602.763 725.469 585.68 724.299C538.352 721.268 490.831 724.241 444.25 733.147C440.426 732.136 437.41 730.8 435.115 727.436C432.735 723.947 432.177 719.256 433.144 715.192C433.874 712.126 435.664 709.592 438.379 707.97C446.028 703.399 463.468 701.91 472.453 700.583C486.683 698.482 501.009 696.434 515.363 695.352C553.449 692.48 590.942 695.412 628.604 701.164C643.951 703.507 659.02 705.81 674.11 709.504C673.175 703.966 672.604 698.67 670.889 693.268C663.256 669.22 649.277 651.909 630.269 635.95C620.529 627.62 609.889 620.404 598.546 614.439C541.662 585.013 465.76 587.828 406.066 607.016C403.879 607.757 401.602 608.409 399.473 609.295L391.614 612.162C388.439 613.534 385.181 614.817 382.066 616.314C375.513 619.552 369.056 622.982 362.704 626.599C359.479 628.475 356.344 630.82 353.039 632.511ZM265.044 262.276C291.763 289.096 324.466 305.374 360.964 314.414C368.695 316.329 376.552 317.568 384.317 319.291C387.932 319.622 391.535 319.934 395.12 320.512C397.758 320.863 401.449 320.886 403.889 321.78C410.993 322.443 447.969 324.747 451.768 321.944L450.774 321.351L451.277 321.048C449.72 318.02 438.478 307.329 435.562 304.552C413.53 283.567 390.076 264.517 364.047 248.662C353.437 242.199 342.463 236.583 331.581 230.623C329.28 229.567 326.995 228.571 324.878 227.169C318.594 224.575 308.99 220.743 305.614 214.468C303.44 210.426 304.062 206.319 305.202 202.098C306.434 199.614 308.168 197.897 310.399 196.287C314.325 194.544 317.945 194.988 321.889 196.563C325.062 197.83 328.511 199.438 331.373 201.282C335.214 203.064 338.888 204.963 342.537 207.109C348.379 209.216 390.152 233.193 393.094 237.02L394.724 238.025C399.443 241.263 404.036 244.606 408.655 247.983C412.327 250.539 415.909 253.222 419.394 256.026C422.808 259.66 427.599 262.545 431.461 265.738C444.354 276.394 459.237 288.569 468.869 302.322C461.882 281.225 457.07 261.96 445.976 242.352C417.225 191.535 375.62 162.361 319.71 147.068C307.688 143.779 294.832 141.079 282.512 139.284C271.849 137.73 213.172 132.957 206.275 136.907C206.041 137.431 206.008 137.434 205.899 138.098C205.265 141.965 207.451 148.254 208.15 152.253C214.843 190.58 234.209 226.058 259.073 255.559C261.067 257.689 263.424 259.862 265.044 262.276ZM656.943 234.765C662.477 231.294 668.678 228.749 674.674 226.183C682.848 222.265 695.422 215.145 704.55 218.541C707.878 219.779 710.198 222.326 711.561 225.554C712.745 228.359 712.934 231.013 713.051 233.998C711.188 237.059 709.374 239.259 706.275 241.207C698.815 245.894 689.816 248.693 681.845 252.499C664.673 260.7 647.981 269.563 631.933 279.814C610.858 293.396 591.166 309.012 573.139 326.438C570.999 328.476 560.238 338.313 559.765 340.607C561.437 342.416 563.988 342.272 566.327 342.466C569.786 342.928 573.258 343.298 576.738 343.573C583.79 344.402 591.475 344.08 598.579 343.85C621.871 343.099 645.577 340.643 667.996 333.963C716.809 319.416 748.854 292.473 773.029 247.833C775.606 242.892 778.131 237.923 780.603 232.928C782.779 227.878 784.941 222.856 786.789 217.674C788.73 212.971 790.454 207.986 791.828 203.09C792.471 201.048 793.084 199.022 793.564 196.934C794.303 194.657 794.902 192.328 795.548 190.023C796.908 185.15 798.265 180.138 798.794 175.099C798.645 175.067 798.496 175.037 798.347 175.004C792.423 173.662 786.069 173.502 780.017 173.062C757.074 171.264 734.018 171.483 711.113 173.717L703.726 174.784C652.793 181.26 608.725 199.893 576.643 241.262C563.606 258.074 554.435 277.852 547.464 297.867C544.973 305.018 543.099 312.433 540.215 319.437C547.655 311.884 555.524 304.766 563.783 298.118C565.091 296.491 566.581 295.484 568.285 294.319C575.116 289.244 581.529 283.582 588.327 278.451C604.755 266.071 621.855 254.609 639.55 244.118C644.906 240.967 651.049 236.734 656.943 234.765Z"/>
	<path fill="#868252" d="M279.962 683.066C283.738 674.798 287.933 665.934 293.563 658.761C295.095 658.725 295.274 658.607 296.495 659.49C296.932 661.313 297.298 663.244 296.322 664.975C295.89 665.739 295.573 666.099 294.88 666.598L294.099 666.31C294.001 666.04 293.906 665.77 293.805 665.501C293.541 664.805 293.315 664.289 292.922 663.674C291.927 664.041 291.326 664.752 290.843 665.696C290.306 666.744 289.973 668.394 290.49 669.489C290.732 670.003 291.063 670.426 291.391 670.882C290.262 672.025 289.577 673.435 288.802 674.826L289.202 675.29L289.756 674.823C289.92 676.268 290.106 676.818 289.512 678.174C288.473 678.724 286.756 679.252 285.882 679.988C283.88 681.674 284.567 684.083 281.24 684.158C280.771 683.806 280.348 683.51 279.962 683.066Z"/>
	<path fill="#868252" d="M693.574 352.933L692.807 351.997C693.079 351.322 693.269 350.731 693.458 350.019L691.179 347.918C691.389 347.245 691.253 347.546 691.63 346.914C692.224 345.92 692.658 345.269 692.847 344.095C693.039 342.904 692.72 343.652 693.421 342.546L694.745 343.555C695.141 342.989 695.507 342.417 695.873 341.83L696.662 341.881C698.162 343.934 697.315 345.712 698.77 347.771L699.899 347.778C700.621 348.711 700.25 349.166 700.107 350.293C697.948 351.218 695.77 352.098 693.574 352.933Z"/>
	<path fill="#868252" d="M379.928 345.95C380.449 344.676 381.526 344.091 381.341 342.896C380.572 342.247 380.064 341.899 379.095 341.616C380.293 340.566 381.324 340.274 382.883 340.445C386.768 340.87 389.14 344.019 392.268 345.878C392.745 346.832 392.781 346.641 392.632 347.823C388.383 347.205 384.145 346.795 379.928 345.95Z"/>
	<path fill="#868252" d="M602.934 182.085C605.307 179.629 608.987 177.745 611.92 175.99C612.896 176.43 613.863 176.865 614.861 177.253L614.423 178.24C615.346 179.33 616.929 179.769 618.228 180.343C617.898 181.078 617.522 181.697 617.069 182.362L617.539 183.845C616.791 184.774 617.038 184.838 615.764 185.009C613.871 183.195 612.253 179.774 609.23 179.957C607.128 180.085 604.961 181.635 603.175 182.669L602.934 182.085Z"/>
	<path fill="#868252" d="M416.904 350.032C418.264 349.937 419.605 349.837 420.971 349.88L421.961 347.905L422.535 347.857L423.49 348.779L424.086 348.254C423.62 347.385 423.094 346.782 422.416 346.071C423.757 346.128 424.419 346.947 425.531 346.478L424.665 345.304L424.99 344.444L426.244 344.133C426.368 344.968 426.238 344.988 425.894 345.714C426.162 345.812 426.432 345.904 426.697 346.007C428.536 346.726 429.139 348.39 431.168 348.893C432.628 348.062 432.994 346.045 434.437 346.059L434.913 346.814C434.355 348.26 433.925 348.575 434.557 350.039L434.792 349.838L435.5 350.513C429.906 351.191 422.476 350.935 416.904 350.032Z"/>
	<path fill="#868252" d="M686.874 778.102C686.231 776.469 686.117 775.565 686.546 773.844C686.782 772.898 685.668 772.931 685.47 771.781C686.778 771.861 686.127 771.883 687.423 771.716C687.406 771.287 687.391 770.858 687.38 770.428C687.311 767.869 687.171 766.517 689.013 764.577C690.31 764.257 691.417 764.639 692.675 764.949C690.787 769.305 689.076 773.903 686.874 778.102Z"/>
	<path fill="#868252" d="M240.504 270.423C241.827 270.217 242.264 269.948 243.459 270.613C244.439 273.564 242.17 276.176 245.05 278.491L244.889 278.877L243.032 278.286L240.931 276.372C238.922 274.761 237.351 272.714 235.698 270.752C237.344 269.974 238.735 270.243 240.504 270.423Z"/>
	<path fill="#726E40" d="M235.698 270.752C237.344 269.974 238.735 270.243 240.504 270.423L241.332 271.32L240.931 276.372C238.922 274.761 237.351 272.714 235.698 270.752Z"/>
	<path fill="#868252" d="M533.148 266.443C534.414 267.667 535.268 268.64 536.977 269.231L537.686 270.139C536.682 271.261 534.781 270.632 534.878 272.734C534.934 273.939 535.315 274.961 535.704 276.086C534.776 275.809 535.215 276.067 534.48 275.175C533.473 275.356 533.006 275.589 532.201 276.218L531.381 275.69C531.342 274.27 531.379 272.972 531.537 271.561L531.247 271.297C531.753 269.637 532.481 268.044 533.148 266.443Z"/>
	<path fill="#868252" d="M211.527 858.528C210.454 862.41 211.339 867.65 211.72 871.638L211.213 872.227C210.607 871.979 210.253 871.839 209.755 871.399C209.301 869.382 208.982 867.319 208.948 865.247C208.903 862.466 209.625 860.519 211.527 858.528Z"/>
	<path fill="#868252" d="M775.346 143.038C777.846 143.056 780.141 143.159 782.609 143.653C782.395 143.862 782.209 144.104 781.967 144.28C781.595 144.552 781.095 144.613 780.728 144.891C780.035 145.416 779.714 146.007 778.886 146.464C777.52 147.218 776.371 147.676 774.825 147.199C774.298 145.635 774.902 144.602 775.346 143.038Z"/>
	<path fill="#868252" d="M778.647 880.834C777.271 880.616 775.92 880.704 774.89 879.737C774.932 878.369 774.934 877.454 775.688 876.249C778.757 876.508 776.799 879.486 781.657 878.08C782.634 879.004 782.564 879.644 782.85 880.91L778.647 880.834Z"/>
	<path fill="#868252" d="M502.448 337.722C502.088 339.562 501.081 341.809 499.729 343.116L498.978 343.012C498.412 341.136 500.376 340.146 499.842 338.198C499.67 337.568 499.344 336.907 499.267 336.246C499.117 334.95 499.472 334.249 500.157 333.204L501.453 332.953L502.448 337.722Z"/>
	<path fill="#868252" d="M497.034 475.189C497.343 476.067 497.471 476.837 498.115 477.472C499.338 478.681 499.513 481.097 499.357 482.73C499.245 483.901 498.719 484.994 498.301 486.08C497.946 487.003 497.829 487.408 497.75 488.409L497.087 489.292C496.906 484.609 497.039 479.877 497.034 475.189Z"/>
	<path fill="#726E40" d="M226.368 109.963L233.647 110.025C234.134 111.219 234.135 111.442 233.955 112.725L232.994 113.283C232.463 112.362 232.453 112.114 231.504 111.552L230.708 111.979L230.287 113.794C229.139 113.941 228.938 112.622 226.478 112.864L226.02 112.478L226.368 109.963Z"/>
	<path fill="#868252" d="M487.63 564.566C490.254 564.44 492.735 564.245 495.322 563.754C495.007 565.323 494.37 566.245 493.022 567.22C491.219 568.523 489.776 565.99 488.232 568.736C487.741 569.61 488.008 569.34 487.504 569.745L487.182 568.625C487.892 567.783 488.627 567.006 489.41 566.232L489.059 565.401C488.554 565.451 488.067 565.498 487.559 565.5L486.591 566.456C486.93 565.842 487.354 565.206 487.63 564.566Z"/>
	<path fill="#868252" d="M544.385 880.906C545.218 879.952 545.486 879.682 546.538 879.013C546.687 878.919 547.469 878.211 547.574 878.121C548.769 877.09 550.119 876.066 551.767 876.057C552.57 876.052 552.372 876.122 553.027 876.749L552.559 876.956C551.549 877.416 550.354 877.819 549.944 878.959C549.772 879.44 549.737 879.835 549.667 880.328C550.765 880.707 551.624 880.47 552.742 880.293L553.826 880.868C550.738 881.149 547.492 880.941 544.385 880.906Z"/>
	<path fill="#868252" d="M310.112 117.248C311.717 117.576 313.529 117.777 315.076 118.279C314.77 119.66 314.821 121.277 313.786 122.251C312.688 121.473 311.617 120.673 310.55 119.854C309.204 120.232 308.151 120.025 306.807 119.809C307.496 119.323 308.089 119.078 308.89 118.845L309.823 118.58L310.112 117.248Z"/>
	<path fill="#868252" d="M426.726 176.492C428.523 178.171 430.296 179.877 432.042 181.609C431.974 182.22 431.933 182.905 431.792 183.508C431.493 184.784 431.607 185.03 430.484 185.717C429.335 184.91 430.539 183.542 430.079 182.027C429.535 181.761 429.087 181.575 428.491 181.438C428.32 181.399 428.147 181.368 427.975 181.333L427.119 179.958C427.173 179.04 427.134 178.285 426.934 177.393L426.726 176.492Z"/>
	<path fill="#868252" d="M412.817 163.68C414.57 165.261 416.296 166.895 418.116 168.398C417.659 169.73 417.249 170.398 416.266 171.405L415.527 171.394C413.803 169.7 412.878 166.057 412.817 163.68Z"/>
	<path fill="#9F9B69" d="M291.391 670.882C292.247 669.86 292.792 668.692 294.134 668.457C294.23 669.634 293.174 670.288 293.758 671.189L294.8 671.551C294.583 671.723 294.332 671.86 294.147 672.068C293.754 672.509 293.461 673.612 293.234 674.184C292.487 674.174 291.794 674.121 291.053 674.041L289.756 674.823L289.202 675.29L288.802 674.826C289.577 673.435 290.262 672.025 291.391 670.882Z"/>
	<path fill="#868252" d="M177.312 132.929C177.467 131.491 177.56 130.07 178.026 128.693L178.493 128.885C179.14 130.7 179.545 133.421 181.05 134.569C180.507 135.675 179.909 136.009 178.877 136.644C178.703 136.656 178.53 136.665 178.357 136.681C177.692 136.74 177.942 136.66 177.454 136.925C177.513 135.611 177.37 134.245 177.312 132.929Z"/>
	<path fill="#868252" d="M486.656 268.772L484.929 268.064L483.897 268.506L482.833 266.036L481.264 265.85L480.969 265.292L482.417 264.918C483.389 263.84 483.454 262.319 483.778 260.915L486.656 268.772Z"/>
	<path fill="#868252" d="M573.997 368.561C574.316 367.404 574.759 366.31 575.874 365.661C577.005 365.002 577.461 365.095 578.627 365.387C579.001 366.246 579.12 366.046 578.645 366.956C578.087 368.023 576.635 368.8 575.558 369.121L573.997 368.561Z"/>
	<path fill="#868252" d="M656.943 234.765C662.477 231.294 668.678 228.749 674.674 226.183C674.702 226.329 674.727 226.476 674.757 226.623C675 227.847 675.133 228.516 676.078 229.416C677.358 229.587 678.224 229.066 679.343 228.537L679.768 228.948L679.561 230.643C678.53 231.257 677.651 231.575 676.412 231.346C675.03 231.092 674.468 230.45 673.654 229.382L672.619 229.334L672.405 229.833C673.087 230.912 674.121 231.976 674.048 233.262L673.532 233.653C672.579 233.062 672.417 232.702 671.265 232.824C670.461 233.779 670.407 234.571 670.198 235.765C669.22 235.206 668.515 234.594 667.705 233.814C665.647 234.194 663.252 236.479 661.399 235.959C661.42 235.777 661.445 235.596 661.464 235.414C661.542 234.662 661.544 234.964 661.433 234.255C660.388 234.459 659.512 234.726 658.531 235.14L656.943 234.765Z"/>
	<path fill="#868252" d="M293.345 299.965C295.516 301.15 297.743 302.321 299.701 303.843L299.727 304.627C298.559 305.784 297.196 306.875 296.88 308.556C296.859 308.662 296.743 309.473 296.683 309.593C294.86 313.232 291.677 310.196 289.081 311.686C288.843 311.823 288.62 311.984 288.39 312.134L287.512 311.948L287.513 311.599C289.273 309.335 289.745 307.698 292.229 305.896C292.461 305.727 292.698 305.563 292.932 305.396L292.919 304.655L292.22 304.486C291.266 304.815 290.315 305.091 289.346 305.371L288.483 304.826C288.309 303.607 287.974 303.379 288.737 302.346C289.514 302.492 290.358 302.704 291.145 302.739C292.369 302.793 292.494 302.863 293.358 302.012L293.345 299.965Z"/>
	<path fill="#868252" d="M336.566 805.43C336.353 804.373 335.475 803.986 334.658 803.321L334.811 802.741C335.902 802.251 336.645 801.611 337.829 801.938L339.138 804.87C339.862 803.854 339.669 803.699 340.958 803.42C342.607 804.251 344.309 806.129 346.061 806.056C348.114 807.35 350.135 808.618 352.051 810.113C351.252 810.223 351.63 810.259 350.84 810C350.57 809.912 350.308 809.801 350.033 809.731C347.913 809.194 345.336 807.489 343.362 807.471C342.615 808.586 342.416 808.854 342.299 810.173L342.802 810.581L344.896 809.615C345.209 810.583 344.847 810.765 344.42 811.646C343.12 812.109 342.994 811.868 341.685 811.356C340.955 811.651 340.223 811.901 339.473 812.142C338.537 811.419 338.467 811.6 338.158 810.372C338.906 809.619 339.268 809.226 339.737 808.248L338.992 807.874C338.249 808.189 337.531 808.453 336.755 808.674C336.078 807.434 336.383 806.805 336.566 805.43Z"/>
	<path fill="#9F9B69" d="M336.566 805.43C336.353 804.373 335.475 803.986 334.658 803.321L334.811 802.741C335.902 802.251 336.645 801.611 337.829 801.938L339.138 804.87C339.776 805.644 340.118 805.71 340.089 806.751C338.574 806.601 337.842 806.187 336.566 805.43Z"/>
	<defs>
		<linearGradient id="gradient_0" gradientUnits="userSpaceOnUse" x1="794.58868" y1="211.82088" x2="789.99139" y2="210.33569">
			<stop offset="0" stop-color="#999468"/>
			<stop offset="1" stop-color="#817E4E"/>
		</linearGradient>
	</defs>
	<path fill="url(#gradient_0)" d="M791.828 203.09C793.522 203.329 795.363 203.457 796.991 203.967L798.036 204.008C798.015 205.929 797.869 206.515 799.283 208.005L795.432 208.531L795.63 209.678C794.393 209.933 793.304 209.122 792.208 208.57C791.417 208.984 790.833 209.672 790.655 210.592C790.224 212.809 791.709 214.56 790.853 216.718C789.938 217.124 789.28 217.327 788.296 217.455C787.793 217.521 787.292 217.601 786.789 217.674C788.73 212.971 790.454 207.986 791.828 203.09Z"/>
	<path fill="#868252" d="M796.991 203.967L798.036 204.008C798.015 205.929 797.869 206.515 799.283 208.005L795.432 208.531C795.616 206.13 796.7 205.967 796.991 203.967Z"/>
	<defs>
		<linearGradient id="gradient_1" gradientUnits="userSpaceOnUse" x1="328.82727" y1="223.15421" x2="326.76584" y2="227.16467">
			<stop offset="0" stop-color="#9C9465"/>
			<stop offset="1" stop-color="#7A7344"/>
		</linearGradient>
	</defs>
	<path fill="url(#gradient_1)" d="M325.356 220.638L325.758 220.458L326.836 221.445L326.725 222.699C328.762 223.775 332.714 225.081 333.5 227.426C333.55 227.573 333.566 227.73 333.599 227.882C332.681 227.849 331.877 227.778 330.984 227.561L330.684 228.12C330.985 228.934 331.378 229.783 331.581 230.623C329.28 229.567 326.995 228.571 324.878 227.169L325.097 226.916L323.393 225.236C321.992 224.723 319.978 223.751 319.194 222.47L319.948 221.845C321.761 221.79 323.127 221.494 324.827 220.845L325.356 220.638Z"/>
	<path fill="#868252" d="M323.393 225.236C321.992 224.723 319.978 223.751 319.194 222.47L319.948 221.845C321.761 221.79 323.127 221.494 324.827 220.845L325.356 220.638C324.798 222.084 324.593 222.195 325.217 223.676C325.596 224.578 326.189 225.306 326.772 226.084C325.642 225.812 324.514 225.544 323.393 225.236Z"/>
	<path fill="#868252" d="M545.8 274.808C547.503 276.087 549.786 275.631 551.926 276.104L551.845 276.762L550.252 277.271C550.359 278.33 550.274 278.286 549.856 279.182C550.267 280.793 551.519 280.014 552.2 281.752C551.706 282.445 551.316 282.885 550.614 283.37L549.971 283.149C549.058 283.357 548.542 283.61 547.832 284.202C547.595 284.399 547.363 284.602 547.128 284.802L545.864 282.108L544.497 281.989L544.529 281.639L545.276 280.975L544.568 280.261L543.067 280.585C543.036 280.44 542.989 280.298 542.975 280.151C542.797 278.235 544.717 276.238 545.8 274.808Z"/>
	<defs>
		<linearGradient id="gradient_2" gradientUnits="userSpaceOnUse" x1="742.72455" y1="303.33606" x2="734.4765" y2="305.28806">
			<stop offset="0" stop-color="#A09D6B"/>
			<stop offset="1" stop-color="#7F7C4F"/>
		</linearGradient>
	</defs>
	<path fill="url(#gradient_2)" d="M738.372 300.123L739.029 300.046C740.31 301.121 740.725 302.306 741.361 303.833L741.629 304.491L741.945 304.392L741.988 302.25L742.697 301.95L742.983 300.959L743.658 301.211C743.433 302.652 743.417 304.096 743.151 305.529C742.233 305.717 741.309 305.898 740.397 306.116C738.037 306.68 737.906 307.516 736.728 309.466C737.323 310.259 737.577 310.581 738.542 310.942C738.775 311.03 739.018 311.089 739.256 311.163C739.22 312.41 739.431 312.99 738.505 313.942C737.553 312.644 736.546 311.201 735.835 309.761C735.282 308.642 735.185 307.97 735.577 306.813L736.352 306.311C736.288 304.981 735.852 303.816 735.436 302.566C736.313 301.135 736.933 300.929 738.372 300.123Z"/>
	<path fill="#868252" d="M432.559 843.479C438.139 844.635 443.843 845.643 449.358 847.068L447.955 847.783C447.773 848.912 447.574 849.431 446.863 850.33C445.294 850.435 443.949 849.514 442.536 848.853C442.177 849.88 441.889 850.603 441.19 851.442L440.419 851.221C440.238 850.079 439.97 848.534 439.256 847.567C438.344 846.333 437.489 846.088 436.094 845.752C434.608 846.323 434.539 846.917 433.753 848.261L433.188 848.236C433.143 847.996 433.057 847.761 433.052 847.518C433.024 846.254 433.319 845.665 432.883 844.386C432.78 844.082 432.667 843.782 432.559 843.479Z"/>
	<path fill="#868252" d="M408.655 247.983C412.327 250.539 415.909 253.222 419.394 256.026C418.931 257.007 418.453 258.359 417.791 259.201C417.005 260.202 416.097 259.869 414.978 259.819C411.549 257.642 413.376 254.851 411.655 252.006C410.852 250.678 408.936 251.27 408.049 249.515L408.655 247.983Z"/>
	<path fill="#868252" d="M429.649 327.312C431.379 327.061 433.235 326.957 434.939 327.371C434.23 327.936 433.758 328.419 433.245 329.168L433.539 330.039L435.15 329.737C436.234 330.377 436.098 330.458 436.425 331.696C435.823 331.999 435.396 332.131 434.988 332.683L435.713 333.691C435.686 334.825 435.68 334.731 434.854 335.522C433.944 335.19 434.128 335.388 433.574 334.804C432.921 334.115 432.456 333.454 431.64 332.927C430.973 332.496 429.905 332.953 429.146 333.106C429.454 333.459 429.548 333.554 429.858 333.979C430.608 335.006 431.069 335.405 430.855 336.741L429.992 337.11C428.529 336.091 428.8 333.783 427.605 332.407C426.559 331.204 425.895 330.786 425.488 329.148C426.308 329.38 425.937 329.203 426.765 329.836C427.596 330.47 428.054 330.59 429.141 330.554C430.349 330.514 431.078 329.805 431.796 328.959L431.435 327.95L429.649 327.312Z"/>
	<path fill="#868252" d="M773.029 247.833C775.606 242.892 778.131 237.923 780.603 232.928C780.531 234.193 780.484 235.359 780.571 236.62C780.716 238.73 779.076 240.98 779.229 242.895C779.375 244.726 781.388 242.957 779.885 245.758C777.403 247.428 775.99 248.123 773.029 247.833Z"/>
	<defs>
		<linearGradient id="gradient_3" gradientUnits="userSpaceOnUse" x1="567.97913" y1="342.28091" x2="571.63885" y2="348.22244">
			<stop offset="0" stop-color="#7B7545"/>
			<stop offset="1" stop-color="#90905C"/>
		</linearGradient>
	</defs>
	<path fill="url(#gradient_3)" d="M566.327 342.466C569.786 342.928 573.258 343.298 576.738 343.573C576.009 344.127 575.633 344.521 575.216 345.341C574.355 347.032 573.323 348.145 572.011 349.518C571.202 347.967 570.386 346.599 569.322 345.208L568.246 345.122C568.555 345.867 568.783 346.595 568.994 347.374L568.35 347.951C567.21 347.262 566.676 346.468 565.895 345.439C565.148 344.455 565.467 345.005 564.998 344.013L566.327 342.466Z"/>
	<path fill="#9F9B69" d="M396.375 587.608L396.368 588.474C397.065 589.288 397.519 589.595 398.518 589.91C399.435 590.2 400.247 590.519 401.116 590.945L401.07 591.697C399.898 592.892 399.278 593.291 397.631 593.648C396.875 593.812 396.581 594.351 396.045 594.894C395.364 594.619 394.847 594.654 394.121 594.639L394.291 594.725L393.907 594.237L393.042 594.88L392.929 594.797C392.674 592.463 392.677 589.8 393.584 587.609C394.416 587.818 394.909 587.938 395.774 587.764C395.977 587.723 396.174 587.66 396.375 587.608Z"/>
	<path fill="#9F9B69" d="M618.665 705.071C618.894 706.075 619.191 706.506 619.872 707.271C620.949 707.303 621.7 707.371 622.7 707.784L623.034 708.618C622.212 708.959 621.747 709.197 621.027 709.754L621.894 711.178L621.317 711.474C619.409 711.215 618.121 711.143 616.293 711.835C616.147 711.89 616.003 711.952 615.858 712.01C615.434 712.75 615.001 713.479 614.638 714.252C614.576 714.385 614.519 714.521 614.459 714.655L614.104 714.644C613.711 713.8 613.374 713.028 612.815 712.277C612.707 712.132 612.588 711.996 612.474 711.856C612.927 710.473 614.04 709.832 615.189 709.043C616.757 707.966 617.443 707.277 618.394 705.573C618.487 705.407 618.575 705.239 618.665 705.071Z"/>
	<path fill="#868252" d="M625.977 270.505C626.403 271.923 626.92 273.301 627.357 274.712C627.641 275.631 628.041 276.122 627.578 276.993C625.889 276.477 626.248 273.759 624.369 272.829C622.369 273.173 621.078 274.612 619.437 275.688C619.872 273.707 620.153 270.324 621.508 268.825C621.852 269.42 622.043 269.7 622.567 270.171L623.145 269.694L622.487 268.508C622.778 267.659 623.036 266.852 623.447 266.053L625.387 266.208C625.866 267.631 625.787 268.502 625.642 269.961L625.977 270.505Z"/>
	<path fill="#868252" d="M200.467 128.078C200.642 129.809 202.304 130.835 202.93 132.536C202.404 132.762 201.89 133.019 201.383 133.285C201.401 134.53 201.459 135.771 201.257 137.004C201.169 137.542 199.135 137.995 198.287 138.578L198.171 140.055L197.147 140.138C196.514 139.086 196.264 138.988 196.298 137.713L197.499 138.231L198.195 137.749C197.448 136.41 197.121 136.089 197.22 134.521L199.214 133.803L199.344 132.983L197.705 132.107L197.657 131.393C198.429 129.911 199.18 129.134 200.467 128.078Z"/>
	<path fill="#868252" d="M324.51 326.751C325.127 326.987 325.445 326.791 326.078 326.653C327.44 327.285 328.758 328.112 330.301 327.967L330.301 327.266L330.687 327.073C331.681 327.977 331.676 328.541 332.053 329.778L331.225 330.505L330.705 332.098C330.155 332.05 329.605 332.006 329.058 331.934C326.964 331.657 323.799 331.112 322.555 329.179C322.198 328.625 322.484 328.296 322.651 327.723L324.51 326.751Z"/>
	<path fill="#9F9B69" d="M356.418 609.799L356.908 610.637C356.703 611.584 356.406 611.957 355.857 612.734L355.536 611.068L355.012 610.802C354.624 611.074 354 611.544 353.566 611.699C352.427 612.105 351.961 611.924 351.063 611.324C350.329 608.245 348.95 608.857 348.256 607.112L349.334 606.263C350.535 606.252 351.262 606.165 352.354 606.749C352.568 606.863 352.762 607.011 352.966 607.142L354.325 606.188C355.505 606.495 355.599 606.748 356.453 607.554C356.692 608.578 356.702 608.789 356.418 609.799Z"/>
	<path fill="#868252" d="M354.325 606.188C355.505 606.495 355.599 606.748 356.453 607.554C356.692 608.578 356.702 608.789 356.418 609.799C355.382 609.501 354.602 609.792 353.57 610.007L353.889 609.826L353.143 609.933C352.889 608.204 353.492 607.685 354.325 606.188Z"/>
	<path fill="#868252" d="M384.317 319.291C387.932 319.622 391.535 319.934 395.12 320.512L393.794 322.567C393.597 323.338 393.342 324.045 393.067 324.79C392.14 324.644 391.464 324.672 390.54 324.822C389.834 325.424 389.212 325.858 388.383 326.273C387.83 326.023 387.288 325.785 386.713 325.587C386.572 325.538 386.429 325.494 386.286 325.447L385.866 324.527L385.55 325.298C386.303 324.855 388.023 325.22 389.019 325.113L389.957 323.249C388.956 320.604 385.614 321.55 383.59 319.952L384.317 319.291Z"/>
	<path fill="#868252" d="M795.488 236.847C795.608 236.86 797.402 240.699 798.541 241.573L799.245 241.262C799.421 239.798 798.842 239.191 798.167 237.906L798.456 237.487C800.092 238.375 800.587 239.994 801.236 241.665C800.982 242.635 801.035 242.224 800.985 243.177C800.941 244.026 800.879 244.866 800.803 245.713L799.693 246.417L799.242 246.327L799.342 246.384C799.166 246.288 798.982 246.206 798.815 246.096C796.441 244.536 795.055 241.15 794.442 238.479L795.488 236.847Z"/>
	<defs>
		<linearGradient id="gradient_4" gradientUnits="userSpaceOnUse" x1="647.15771" y1="258.11462" x2="649.16895" y2="262.50684">
			<stop offset="0" stop-color="#999562"/>
			<stop offset="1" stop-color="#857E56"/>
		</linearGradient>
	</defs>
	<path fill="url(#gradient_4)" d="M648.899 252.529C649.673 252.719 650.293 253.041 651.008 253.386L651.222 254.204L649.365 255.796L649.408 256.518C650.226 257.16 650.966 257.815 651.704 258.549C651.737 259.75 651.505 260.99 651.365 262.185L650.545 262.643L649.407 262.043L649.092 261.922C648.117 262.635 648.424 262.324 647.685 263.173C647.521 263.361 647.365 263.556 647.205 263.747L647.019 262.925C647.632 262.018 647.444 262.514 647.591 261.439C646.75 261.532 646.512 261.583 645.701 261.261C646.391 256.955 649.066 258.52 648.899 252.529Z"/>
	<defs>
		<linearGradient id="gradient_5" gradientUnits="userSpaceOnUse" x1="347.92664" y1="630.81458" x2="349.67728" y2="633.33502">
			<stop offset="0" stop-color="#A8A26E"/>
			<stop offset="1" stop-color="#817D4F"/>
		</linearGradient>
	</defs>
	<path fill="url(#gradient_5)" d="M344.58 638.844C345.018 638.083 344.841 638.305 345.318 637.736C345.979 636.945 346.56 636.321 346.965 635.351C345.856 635.227 345.829 635.374 344.934 634.595L345.317 633.415C347.205 631.471 348.543 630.651 351.266 630.407C352.545 631.168 352.644 631.121 353.039 632.511L344.58 638.844Z"/>
	<defs>
		<linearGradient id="gradient_6" gradientUnits="userSpaceOnUse" x1="522.8396" y1="376.02295" x2="522.69482" y2="384.46906">
			<stop offset="0" stop-color="#A29F6C"/>
			<stop offset="1" stop-color="#817C4B"/>
		</linearGradient>
	</defs>
	<path fill="url(#gradient_6)" d="M521.489 376.004C524.152 378.061 524.579 380.252 526.098 383.043C526.168 384.25 525.817 384.719 525.166 385.709C524.635 384.901 524.237 384.348 523.459 383.754C521.829 382.508 520.012 381.027 519.056 379.187C520.033 378.804 520.669 378.317 521.475 377.651L521.489 376.004Z"/>
	<path fill="#868252" d="M443.449 221.656C444.805 222.312 447.492 224 448.143 225.372C448.977 227.128 448.489 227.953 447.822 229.572L447.142 229.708C446.002 229.23 444.894 228.601 444.196 227.539C442.828 225.46 442.937 223.949 443.449 221.656Z"/>
	<path fill="#9F9B69" d="M644.543 160.465C645.195 160.787 646.093 161.133 646.643 161.599C647.56 162.378 647.479 162.833 647.555 163.94C647.097 164.646 646.748 165.087 645.96 165.474C644.297 166.293 642.754 165.764 641.151 165.161C640.14 165.014 639.663 165.158 638.734 165.566C638.568 165.639 638.405 165.719 638.241 165.795L638.092 165.119L638.95 164.005C641.332 163.461 642.427 162.801 644.084 160.985C644.24 160.814 644.39 160.638 644.543 160.465Z"/>
	<path fill="#9F9B69" d="M544.034 264.685C544.936 265.363 545.845 266.159 546.905 266.569C547.557 266.82 547.544 266.974 547.952 267.543C547.503 268.286 547.282 268.457 546.495 268.881C545.469 269.434 544.618 270.065 543.703 270.786L543.538 270.847C543.066 271.571 543.388 271.246 542.494 271.738C541.645 271.001 541.045 270.776 541.045 269.56C541.044 267.479 542.707 266.088 544.034 264.685Z"/>
	<path fill="#868252" d="M630.908 266.34L632.344 265.758C635.066 267.374 636.607 270.438 638.394 273.015L638.319 273.808C637.254 274.229 637.189 274.235 636.078 273.96L636.247 273.329L636.121 272.882L635.066 273.223C633.281 272.185 632.75 269.992 631.93 268.213C631.611 267.522 631.672 267.727 630.973 267.064L630.908 266.34Z"/>
	<defs>
		<linearGradient id="gradient_7" gradientUnits="userSpaceOnUse" x1="683.99548" y1="666.40479" x2="679.95691" y2="666.59753">
			<stop offset="0" stop-color="#9B9865"/>
			<stop offset="1" stop-color="#807D4F"/>
		</linearGradient>
	</defs>
	<path fill="url(#gradient_7)" d="M682.477 662.995C683.228 664.311 683.809 665.507 684.326 666.93C684.177 667.626 684.036 667.997 683.636 668.61C683.518 668.791 683.389 668.965 683.266 669.142C683.761 669.85 684.127 670.481 684.454 671.281L684.102 672.004L682.883 672.396L682.631 671.084L681.932 670.435C680.796 670.834 680.176 671.055 678.982 670.803L679.045 670.38L680.734 670.032C681.416 668.824 680.022 668.15 679.93 666.982C679.795 665.279 681.48 665.667 682.477 662.995Z"/>
	<path fill="#868252" d="M399.473 609.295L399.056 608.982C398.69 607.655 398.386 606.221 398.805 604.876L399.91 604.539C399.864 603.543 399.694 602.593 399.529 601.611C400.438 601.432 400.021 601.423 401.051 601.673C402.072 601.922 401.71 601.679 402.244 602.564C401.87 603.784 401.622 604.389 401.819 605.695C402.457 605.822 403.095 605.954 403.734 606.073C404.746 606.262 405.193 606.509 406.066 607.016C403.879 607.757 401.602 608.409 399.473 609.295Z"/>
	<path fill="#868252" d="M464.07 335.882C465.548 337.01 466.579 341.772 467.337 343.713C468.016 343.954 468.169 344.578 468.534 345.179L468.038 345.454L467.6 344.464C467.5 344.464 467.4 344.456 467.3 344.465C465.192 344.644 464.448 344.986 462.593 343.875L462.613 343.256L464.64 342.074L464.773 341.347C464.12 340.533 463.448 339.749 462.753 338.97C462.883 337.395 463.118 337.173 464.07 335.882Z"/>
	<path fill="#868252" d="M395.12 320.512C397.758 320.863 401.449 320.886 403.889 321.78C403.478 323.092 403.137 324.093 402.278 325.204L401.311 325.363C400.287 324.339 399.171 322.837 397.724 322.491C395.794 323.213 395.672 323.099 393.794 322.567L395.12 320.512Z"/>
	<path fill="#9F9B69" d="M258.301 267.763L260.496 268.076L260.747 268.699L258.968 270.741L259.628 271.368C260.989 271.118 261.302 270.393 262.208 269.408L262.731 269.778L262.885 271.18C263.897 272.166 264.203 271.992 265.635 272.099C263.532 272.693 260.768 274.548 258.649 274.029C257.705 272.289 258.226 269.753 258.301 267.763Z"/>
	<path fill="#868252" d="M774.662 286.322L775.473 286.621L775.884 287.522C775.606 288.941 775.078 290.009 774.079 291.057C772.665 292.541 772.282 292.603 770.231 292.651C769.465 292.149 769.222 291.966 768.694 291.178L769.129 290.287C771.302 289.396 772.631 288.556 774.227 286.812C774.374 286.651 774.517 286.485 774.662 286.322Z"/>
	<path fill="#868252" d="M549.842 342.682C551.037 343.021 551.785 343.017 552.691 343.926C552.34 344.481 552.019 345.028 551.698 345.604L552.534 346.44L553.434 346.314L554.552 344.264L555.486 344.42C555.655 345.622 555.34 345.725 554.753 346.738C553.892 347.999 553.053 349.144 551.998 350.25L551.061 350.148C550.358 349.26 550.329 348.729 550.305 347.645C550.266 345.948 549.812 344.367 549.842 342.682Z"/>
	<path fill="#868252" d="M532.421 283.14C534.845 283.999 535.307 284.33 537.938 283.999C539.092 284.73 539.35 286.005 539.795 287.226L539.221 287.978L537.222 287.035C536.168 287.492 535.11 287.91 534.033 288.311L533.265 287.792L533.074 286.268L533.872 285.418L532.421 283.14Z"/>
	<path fill="#868252" d="M331.373 201.282C335.214 203.064 338.888 204.963 342.537 207.109C339.985 207.198 335.634 206.853 333.532 205.246C332.356 204.346 331.511 202.731 331.373 201.282Z"/>
	<path fill="#868252" d="M568.285 294.319L569.339 296.458C569.271 296.613 569.201 296.766 569.136 296.923C568.849 297.613 568.645 298.308 568.436 299.024C568.899 299.469 569.367 299.908 569.839 300.343L569.787 300.833C568.548 301.104 568.42 301.39 567.252 300.772L566.693 298.825L565.957 298.744L565.682 299.351L564.685 299.416L565.223 299.795L564.11 299.341C564.081 299.172 564.055 299.003 564.024 298.835C563.916 298.243 564.023 298.445 563.783 298.118C565.091 296.491 566.581 295.484 568.285 294.319Z"/>
	<path fill="#9F9B69" d="M811.474 162.902L811.662 162.944L812.241 163.677C812.971 163.459 812.726 163.597 813.318 163.18C813.451 163.086 813.579 162.985 813.71 162.887C814.544 163.677 815.107 164.279 816.191 164.717C816.405 164.803 816.629 164.861 816.848 164.933C816.833 165.086 816.829 165.24 816.801 165.391C816.611 166.423 816.017 166.933 815.196 167.507L814.437 167.793L814.707 168.051L814.239 168.176C812.688 167.273 810.786 166.525 809.436 165.363C810.199 164.811 810.545 164.464 811.053 163.638C811.202 163.398 811.334 163.148 811.474 162.902Z"/>
	<path fill="#868252" d="M326.991 801.512C330.346 804.477 327.357 807.039 328.771 810.76C329.762 810.884 330.431 810.981 331.297 811.496L331.409 812.923C330.193 812.537 329.067 812.774 327.856 812.383C326.601 810.633 327.211 807.466 326.507 805.39C326.393 805.053 326.137 804.581 326.088 804.256C325.938 803.255 326.497 802.322 326.991 801.512Z"/>
	<path fill="#9F9B69" d="M396.247 585.089C397.97 583.906 399.727 582.732 401.524 581.663C402.625 581.008 403.617 580.456 404.894 580.77C404.927 582.124 403.941 582.602 403.498 584.031L403.093 586.217L396.247 585.089Z"/>
	<path fill="#868252" d="M798.036 204.008C800.161 204.34 800.703 204.042 802.622 203.274C802.674 203.253 802.718 203.216 802.765 203.187C802.469 204.232 802.064 204.832 802.487 205.868L804.945 206.802L805.252 207.498C803.879 208.669 802.077 207.169 800.642 208.59L799.283 208.005C797.869 206.515 798.015 205.929 798.036 204.008Z"/>
	<path fill="#868252" d="M332.807 812.719C333.008 813.148 332.901 812.867 333.011 813.662C333.142 814.608 333.231 814.491 333.88 815.115C333.954 815.693 334.048 816.27 333.965 816.855C333.778 818.158 333.572 819.474 332.488 820.225L331.405 819.897C331.254 818.919 331.591 818.436 331.923 817.522L331.181 816.864L329.567 817.584L329.116 817.239C328.847 815.809 328.892 815.895 329.683 814.659C330.642 814.224 331.359 813.878 332.2 813.222C332.408 813.061 332.605 812.886 332.807 812.719Z"/>
	<defs>
		<linearGradient id="gradient_8" gradientUnits="userSpaceOnUse" x1="520.70514" y1="866.85559" x2="521.61151" y2="870.15594">
			<stop offset="0" stop-color="#9D9966"/>
			<stop offset="1" stop-color="#807B51"/>
		</linearGradient>
	</defs>
	<path fill="url(#gradient_8)" d="M523.227 866.396L523.614 866.29C524.43 867.666 525.293 868.605 525.301 870.223C524.003 870.904 523.168 870.71 521.721 870.671C520.666 870.894 520.22 871.053 519.157 870.761C519.111 870.282 519.056 870.083 519.198 869.568C519.76 867.525 521.477 867.018 523.227 866.396Z"/>
	<path fill="#9F9B69" d="M660.375 160.087C661.351 160.222 660.871 160.033 661.754 160.791C661.612 162.286 661.436 163.751 661.187 165.232L660.632 165.505C659.855 164.975 659.757 164.916 658.765 164.835C658.204 165.929 658.015 166.881 657.754 168.067L656.664 167.989L656.096 166.877C656.445 163.786 658.164 162.127 660.375 160.087Z"/>
	<path fill="#9F9B69" d="M482.567 270.514C483.475 270.953 483.796 271.126 484.485 271.906C483.583 273.545 482.357 274.641 481.227 276.081C481.139 276.194 481.054 276.309 480.967 276.424L479.111 276.198L478.609 276.495L478.143 276.365L479.374 273.864C478.685 272.868 478.89 273.386 478.676 272.346C480.03 271.823 481.283 271.184 482.567 270.514Z"/>
	<defs>
		<linearGradient id="gradient_9" gradientUnits="userSpaceOnUse" x1="347.23254" y1="229.73666" x2="350.69714" y2="230.92546">
			<stop offset="0" stop-color="#9F9968"/>
			<stop offset="1" stop-color="#767449"/>
		</linearGradient>
	</defs>
	<path fill="url(#gradient_9)" d="M348.229 226.791C348.799 227.066 348.424 226.855 349.245 227.587L349.049 228.792L349.541 229.119L350.582 227.801L351.738 228.177C351.552 228.381 350.794 229.074 350.723 229.311C350.461 230.185 350.513 230.05 350.768 230.945C351.102 232.12 350.736 232.226 350.194 233.286L348.699 233.966C348.145 234.798 347.639 235.871 346.67 236.194C346.705 233.106 348.391 230.707 348.264 227.401C348.256 227.197 348.24 226.994 348.229 226.791Z"/>
	<path fill="#868252" d="M297.714 777.913C298.853 777.997 299.172 777.995 300.172 778.619C300.732 779.725 301.162 780.676 301.173 781.94C301.186 783.241 300.677 784.609 299.79 785.553L298.443 785.332C297.822 784.672 297.051 783.961 296.556 783.204C295.996 782.349 296.046 781.729 296.228 780.771C297.144 781.671 297.76 782.278 298.963 782.791C299.202 781.114 298.324 779.473 297.714 777.913Z"/>
	<path fill="#868252" d="M451.379 210.749L452.314 211.39L453.975 210.676L454.879 211.079C454.647 213.188 453.643 215.594 452.53 217.4C451.262 216.854 450.525 216.502 449.553 215.476L450.025 215.929L449.419 215.031L449.564 214.294C450.727 213.964 451.431 213.83 452.382 213.029L452.191 212.231C451.398 212.123 450.91 211.99 450.132 211.708L451.379 210.749Z"/>
	<path fill="#9F9B69" d="M605.572 591.777C606.219 592.028 605.96 591.855 606.43 592.296C606.582 592.439 606.72 592.598 606.884 592.726C607.7 593.359 607.493 592.971 608.257 593.796C609.406 595.036 609.497 597.245 609.585 598.824L608.37 598.799C607.406 598.7 607.796 598.688 606.949 598.774C606.058 598.864 606.618 598.844 605.654 598.828C605.214 597.759 605.053 597.296 605.322 596.159L607.027 595.794L607.226 595.235C606.674 595.061 606.125 594.881 605.577 594.697L605.572 591.777Z"/>
	<path fill="#868252" d="M795.548 190.023C796.625 192.036 796.319 194.249 797.482 196.097L799.291 196.589L799.362 197.117C798.089 197.263 798.7 197.335 797.525 196.924C796.832 197.671 796.246 198.454 795.647 199.277C794.95 198.086 794.816 197.571 793.564 196.934C794.303 194.657 794.902 192.328 795.548 190.023Z"/>
	<path fill="#9F9B69" d="M551.98 705.453C553.225 706.077 553.947 706.865 554.849 707.891L555.385 708.508C556.288 709.536 557.275 710.445 557.649 711.802C557.884 712.658 557.511 712.774 557.043 713.42C556.599 713.326 556.37 713.294 555.926 713.122C554.078 712.405 552.943 708.818 552.196 707.157L551.803 707.396L551.24 706.512L551.98 705.453Z"/>
	<path fill="#868252" d="M259.073 255.559C261.067 257.689 263.424 259.862 265.044 262.276C262.586 262.93 260.657 260.443 258.047 260.999C257.743 261.064 257.443 261.144 257.142 261.217L257.109 260.248C257.972 259.437 258.985 258.998 260.037 258.484L260.178 257.755C259.657 257.414 259.251 257.184 258.649 256.995C258.485 256.943 258.317 256.902 258.151 256.855L259.073 255.559Z"/>
	<path fill="#868252" d="M688.219 750.096C688.518 750.12 688.817 750.137 689.115 750.169C690.917 750.367 692.669 749.962 694.242 750.806C694.584 752.264 693.723 753.641 693.157 754.959L692.543 755.722C691.214 753.831 689.07 752.247 688.219 750.096Z"/>
	<path fill="#868252" d="M347.534 321.529L348.133 321.734C348.542 323.478 348.393 327.128 347.479 328.648L346.396 328.05C346.186 327.68 345.98 327.308 345.776 326.934C345.129 325.744 343.904 323.782 344.294 322.445C345.202 322.626 346.026 322.77 346.953 322.775L347.534 321.529Z"/>
	<path fill="#726E40" d="M564.613 840.166C566.122 839.933 567.681 839.379 569.158 838.967L569.046 840.988L569.657 841.671C570.33 842.431 570.827 843.192 571.346 844.062C570.145 844.679 570.105 844.706 568.78 844.475C567.254 843.204 566.264 841.084 564.613 840.166Z"/>
	<path fill="#868252" d="M341.411 314.993C342.165 315.779 342.977 319.209 343.374 320.389L342.727 321.065L341.937 321.006C341.975 319.941 342.016 320.507 341.757 319.312C340.405 319.254 340.301 319.547 339.191 320.231L339.569 321.083L338.986 321.12C338.503 319.493 338.28 318.436 338.534 316.747C339.513 315.421 339.885 315.47 341.411 314.993Z"/>
	<path fill="#9F9B69" d="M749.385 298.895L749.998 299.748C750.898 300.071 751.663 300.291 752.416 300.9C753.109 301.462 752.893 302.435 752.958 303.277L752.301 303.675C751.378 303.689 750.479 303.659 749.559 303.597C748.392 302.764 748.155 302.674 747.643 301.358C748.06 299.929 748.222 299.851 749.385 298.895Z"/>
	<path fill="#868252" d="M545.226 846.898L546.628 848.466C546.847 849.464 546.849 850.176 546.725 851.189C545.899 852.449 545.21 852.985 543.994 853.814L544.422 854.342C543.614 854.018 543.469 853.931 542.847 853.254C542.857 850.919 543.701 848.665 545.226 846.898Z"/>
	<path fill="#868252" d="M583.073 362.399C583.986 362.864 585.251 364.207 585.535 365.189C585.748 365.929 584.787 366.775 584.349 367.354C583.717 367.236 584.093 367.28 583.109 367.324L582.263 367.367C581.179 366.823 581.023 366.804 580.455 365.752C580.969 364.212 581.914 363.455 583.073 362.399Z"/>
	<path fill="#868252" d="M439.769 858.436C439.899 858.692 439.986 858.974 440.16 859.202C440.431 859.557 440.919 859.707 441.18 860.07C441.508 860.525 441.572 861.14 441.914 861.585C442.71 862.618 443.411 862.609 444.579 862.702C445.128 863.58 444.777 864.208 444.639 865.205L444.106 865.043C443.7 864.669 443.181 864.347 442.732 864.023C441.716 864.897 440.974 864.836 439.693 864.929C439.1 863.228 439.826 860.827 439.784 858.963L439.769 858.436Z"/>
	<path fill="#9F9B69" d="M625.387 266.208C626.185 265.292 626.186 265.486 627.309 265.292C628.5 265.788 629.591 266.349 630.908 266.34L630.973 267.064L629.556 267.1C629.447 267.279 629.348 267.466 629.227 267.638C628.588 268.543 627.855 269.007 626.965 269.643L626.853 270.286L625.977 270.505L625.642 269.961C625.787 268.502 625.866 267.631 625.387 266.208Z"/>
	<path fill="#868252" d="M382.066 616.314C381.79 615.282 381.773 615.113 382.061 614.088C384.326 612.342 385.895 612.115 388.729 612.142L391.614 612.162C388.439 613.534 385.181 614.817 382.066 616.314Z"/>
	<path fill="#868252" d="M394.724 238.025C394.313 238.509 393.954 239.059 393.581 239.575C393.746 241.158 394.735 241.167 394.961 242.498L393.828 243.299C393.171 242.994 392.979 241.827 392.724 241.144C391.407 241.296 390.538 241.461 389.264 240.993L389.069 240.263C389.905 239.524 390.384 239.043 391.478 238.708C391.704 238.639 391.937 238.599 392.167 238.545L391.848 237.941L392.739 238.092C392.789 237.53 392.728 237.901 393.094 237.02L394.724 238.025Z"/>
	<path fill="#868252" d="M310.399 196.287L311.266 198.108C310.288 200.018 309.635 200.927 307.809 202.027C306.945 202.077 306.064 202.183 305.202 202.098C306.434 199.614 308.168 197.897 310.399 196.287Z"/>
	<path fill="#868252" d="M611.922 854.119C613.824 853.969 615.601 853.825 617.501 854.094C618.428 854.226 618.583 854.061 619.143 854.816C618.055 855.433 618.059 855.278 616.888 855.177C615.26 855.937 613.835 857.112 612.085 857.569C611.378 856.416 611.779 855.431 611.922 854.119Z"/>
	<path fill="#868252" d="M486.734 875.555C487.508 875.479 487.945 875.45 488.698 875.719C489.519 876.012 489.448 876.424 489.776 877.175C489.677 878.269 489.468 878.747 488.839 879.646L486.84 879.583C485.753 878.968 484.942 878.532 483.692 878.353C482.359 878.162 482.93 878.507 482.086 877.433C483.416 876.698 485.359 877.452 486.934 877.181C487.66 877.056 487.444 877.129 487.823 876.501L486.734 875.555Z"/>
	<path fill="#9F9B69" d="M446.073 590.867C447.279 591.636 447.588 592.726 449.007 593.265L449.62 592.737L448.843 591.32C449.449 591.176 449.078 591.214 449.96 591.374L450.365 592.301L450.061 591.41L450.357 591.708C450.388 592.687 450.182 593.159 449.846 594.062L449.912 594.632C448.541 595.072 447.195 595.46 445.79 595.775L445.062 595.172L445.936 593.492C445.396 592.703 445.615 593.082 445.253 592.37L446.073 590.867Z"/>
	<path fill="#868252" d="M735.078 143.864C737.167 145.095 737.134 145.927 738.573 147.672L739.55 146.375L739.972 146.352L738.955 149.698L738.898 150.099L738.348 150.301C737.312 148.407 734.832 147.521 734.185 145.517L735.078 143.864Z"/>
	<path fill="#868252" d="M460.994 221.013C461.91 222.094 462.499 223.609 463.134 224.885C461.882 225.876 460.344 225.772 458.779 225.98L458.231 225.237L458.555 223.583L457.719 222.626C458.024 222.68 458.324 222.785 458.633 222.787C460.014 222.799 460.291 222.005 460.994 221.013Z"/>
	<path fill="#9F9B69" d="M655.236 779.999C656.443 779.803 655.907 779.681 656.865 780.261L656.677 781.203C654.898 782.512 653.83 783.213 653.18 785.375C651.89 785.179 651.842 785.223 650.964 784.273L651.137 783.257C652.342 781.627 653.431 780.897 655.236 779.999Z"/>
	<path fill="#868252" d="M659.117 803.914C659.985 804.483 660.577 804.881 661.255 805.688C661.431 805.897 661.583 806.125 661.761 806.331C662.269 806.921 662.622 807.407 663.03 808.075L662.538 808.545L661.992 807.87C660.286 807.76 658.666 807.77 656.969 807.502L657.081 806.611C657.704 805.96 658.195 805.377 658.686 804.613C658.834 804.383 658.973 804.147 659.117 803.914Z"/>
	<path fill="#868252" d="M508.56 412.159C509.245 412.198 508.85 412.122 509.707 412.537C508.99 414.394 506.435 415.291 505.341 417.538C504.513 417.036 503.813 416.719 503.301 415.867C502.935 415.26 503.171 415.023 503.332 414.391C503.78 414.135 504.592 413.582 505.127 413.467C506.275 413.22 506.835 413.427 507.84 412.701C508.084 412.525 508.32 412.34 508.56 412.159Z"/>
	<path fill="#9F9B69" d="M651.706 787.608L652.036 787.614C652.245 789.396 653.117 788.557 653.845 789.959C652.758 790.801 651.662 791.221 650.396 791.708L650.716 792.944L650.669 794.166L649.743 794.435C649.216 794.027 648.87 793.993 648.808 793.273C648.616 791.047 650.426 789.247 651.706 787.608Z"/>
	<path fill="#9F9B69" d="M679.723 725.986C681.115 727.107 682.798 726.968 684.362 727.825L684.475 728.68L682.738 730.538L682.27 730.143C681.317 729.696 681.033 729.352 679.967 729.53L679.617 730.767L679.151 730.833C678.629 728.873 680.15 728.183 679.723 725.986Z"/>
	<path fill="#9F9B69" d="M778.556 869.059L778.821 869.375C778.839 870.061 778.918 870.549 779.108 871.221C779.171 871.447 779.243 871.67 779.311 871.894L779.001 872.805L779.485 872.542C778.581 874.054 777.302 873.937 775.64 874.366L774.037 873.698C774.217 872.992 774.069 873.191 774.62 872.659C775.036 872.257 775.501 871.907 775.905 871.492C776.813 870.56 777.51 869.859 778.556 869.059Z"/>
	<path fill="#868252" d="M403.498 584.031L404.284 585.148C405.756 584.992 406.297 584.745 407.619 585.473L407.871 586.481C406.186 587.762 403.903 588.205 401.981 589.115C401.875 587.927 402.524 587.238 403.093 586.217L403.498 584.031Z"/>
	<path fill="#868252" d="M681.285 166.339C682.396 166.618 684.283 166.215 685.089 167.171C685.988 168.237 686.814 169.013 687.885 169.926C686.313 170.326 685.209 170.284 683.664 169.945C682.151 168.934 681.864 168.028 681.285 166.339Z"/>
	<path fill="#9F9B69" d="M702.25 332.248C703.624 332.159 704.457 331.971 705.74 332.578C705.763 333.852 705.306 334.531 704.718 335.622C703.328 335.126 702.045 335.148 700.592 335.13C700.997 334.065 701.619 333.187 702.25 332.248Z"/>
	<path fill="#9F9B69" d="M681.936 733.63C682.103 733.754 682.294 733.851 682.435 734.003C682.997 734.61 683.264 735.217 683.949 735.801L684.725 736.453L684.578 737.175L681.89 738.836L681.687 739.202L679.689 738.326C680.974 737.017 681.298 736.019 681.775 734.253C681.831 734.046 681.883 733.837 681.936 733.63Z"/>
	<path fill="#868252" d="M187.668 136.84C188.9 136.614 189.619 136.356 190.789 136.94C191.168 137.432 191.731 137.86 192.191 138.28C192.293 139.163 192.102 139.314 191.746 140.098L192.435 140.501L192.339 141.132L192.621 140.469L192.13 140.202L190.919 141.264C189.522 140.202 188.029 139.293 187.213 137.693L187.668 136.84Z"/>
	<path fill="#9F9B69" d="M286.06 735.877C286.158 735.929 286.272 735.959 286.354 736.035C287.322 736.923 289.229 739.829 289.182 741.078L287.359 739.716C285.971 740.031 284.894 740.262 283.53 739.744L283.679 739.164L283.483 739.746C283.431 738.764 285.395 736.666 286.06 735.877Z"/>
	<path fill="#9F9B69" d="M610.49 721.81C611.841 722.021 612.722 722.693 613.747 723.552L614.498 724.189L615.287 723.933L615.335 722.61L615.871 722.448L617.933 724.406C617.745 724.519 617.566 724.649 617.37 724.746C615.664 725.587 613.867 725.504 612.089 725.002C610.82 723.903 610.882 723.401 610.49 721.81Z"/>
	<path fill="#868252" d="M801.835 189.703L803.275 189.696C803.222 191.278 802.031 192.598 801.102 193.796L800.574 193.752L800.277 192.433L800.372 191.705C799.227 191.856 798.13 192.073 796.981 191.848L796.953 191.042C798.5 190.308 800.169 190.055 801.835 189.703Z"/>
	<path fill="#9F9B69" d="M654.126 815.265C654.768 815.418 654.864 815.749 655.276 816.243L654.72 816.967C653.642 816.416 654.188 816.548 653.102 816.495L652.497 817.332C652.962 818.324 652.89 817.811 652.736 818.867L650.752 820.243C650.541 820.728 650.722 820.444 649.974 820.886C649.315 820.03 649.402 819.93 649.264 818.917C650.134 817.185 652.494 816.214 654.126 815.265Z"/>
	<path fill="#868252" d="M413.674 260.849L414.125 260.935C415.172 262.473 415.485 262.696 415.353 264.576L413.404 265.068C412.471 264.824 411.743 264.537 410.897 264.074C411.253 262.586 412.553 261.858 413.674 260.849Z"/>
	<path fill="#868252" d="M703.726 174.784L704.565 173.877C704.747 172.712 705.022 172.008 705.619 170.993L706.491 170.905C707.847 172.223 708.83 173.123 710.693 173.617C710.832 173.653 710.973 173.683 711.113 173.717L703.726 174.784Z"/>
	<path fill="#9F9B69" d="M648.134 243.819L648.72 244.21C648.417 245.868 648.362 248.676 647.255 249.898L646.653 249.269L646.36 248.334C645.39 247.955 645.052 247.84 644.321 247.058L644.792 246.43C645.226 246.343 646.058 246.193 646.449 246.032C647.609 245.552 647.704 244.892 648.134 243.819Z"/>
	<path fill="#9F9B69" d="M643.772 267.188C644.571 267.166 645.29 267.192 646.083 267.254L646.174 268.051C645.243 269.357 644.132 270.046 642.817 270.909L641.953 271.379C641.675 270.053 641.684 269.357 642.052 268.053L643.772 267.188Z"/>
	<path fill="#868252" d="M220.997 204.303C222.356 204.282 222.592 204.188 223.703 204.931C223.484 206.461 222.404 207.18 221.378 208.297C220.33 207.69 219.775 207.35 219.171 206.285L219.826 205.028L220.378 204.898L220.997 204.303Z"/>
	<path fill="#9F9B69" d="M364.727 618.968C365.821 619.178 365.711 619.328 366.396 620.132C366.173 621.415 366.056 621.488 365.132 622.425C365.104 623.242 365.143 622.87 365.039 623.545C364.19 623.093 364.508 623.155 363.65 623.057C362.905 622.972 362.817 622.817 362.214 622.392C362.643 620.962 363.736 620.057 364.727 618.968Z"/>
	<path fill="#9F9B69" d="M318.484 798.935L318.767 799.107L318.766 800.526L320.433 801.527L320.526 802.291C319.988 802.746 318.64 802.249 317.594 802.504L317.534 802.503C316.917 802.048 316.315 801.643 315.652 801.253L314.99 800.872L314.907 800.344C316.091 799.842 317.279 799.383 318.484 798.935Z"/>
	<path fill="#868252" d="M334.621 312.893C335.942 313.315 336.754 313.434 337.724 314.489C336.882 315.346 336.025 316.15 335.548 317.275C335.449 317.507 335.361 317.742 335.268 317.976L334.902 318.6L334.384 318.307C334.294 316.418 334.311 314.762 334.621 312.893Z"/>
	<path fill="#9F9B69" d="M284.915 115.539L287.371 116.326L287.709 117.011L286.735 118.64L285.685 118.445C285.478 118.427 285.272 118.388 285.064 118.392C284.013 118.41 283.366 118.577 282.32 118.278L282.413 117.538C283.215 116.8 284.041 116.184 284.915 115.539Z"/>
	<path fill="#9F9B69" d="M617.867 598.794C618.58 599.251 618.867 599.671 619.37 600.339C619.192 601.68 619.213 601.825 618.31 602.813L617.841 602.473L616.88 604.422L616.214 604.325C616.186 604.119 616.146 603.914 616.131 603.706C615.977 601.565 616.488 600.384 617.867 598.794Z"/>
	<path fill="#868252" d="M556.322 263.795C556.767 264.258 557.063 264.768 557.407 265.307C557.23 265.751 557.203 265.906 556.839 266.309C556.216 266.999 555.193 267.655 554.289 267.605C553.561 267.333 552.848 266.988 552.139 266.675L552.294 266.159C553.735 265.494 555.001 264.67 556.322 263.795Z"/>
	<path fill="#868252" d="M394.283 166.222C394.956 166.75 395.628 167.342 396.011 168.125C396.429 168.98 396.487 169.986 396.119 170.827L395.589 169.915C394.543 169.549 394.952 169.56 394.035 169.637C393.413 169.69 392.966 169.687 392.351 169.608C392.864 168.39 393.571 167.329 394.283 166.222Z"/>
	<path fill="#9F9B69" d="M656.239 707.35L656.677 707.282L657.549 708.015C657.396 709.108 657.33 710.137 656.744 711.1C655.355 711.038 654.586 710.972 653.319 710.313C653.685 708.964 655.147 708.189 656.239 707.35Z"/>
	<path fill="#9F9B69" d="M382.609 233.936L383.055 234.353C382.769 235.75 384.586 235.753 385.054 237.199L383.938 238.465C383.388 238.275 382.826 237.845 382.373 237.493C381.231 236.606 381.145 236.57 381.006 235.197L382.609 233.936Z"/>
	<path fill="#9F9B69" d="M547.464 348.828C547.496 348.861 547.539 348.886 547.561 348.926C548.285 350.208 548.731 351.146 548.321 352.597C548.116 353.32 547.955 353.86 547.849 354.591L547.734 355.417L546.399 355.037C546.322 354.872 546.226 354.714 546.168 354.54C545.568 352.754 546.638 350.365 547.464 348.828Z"/>
	<path fill="#868252" d="M415.935 332.711L416.977 333.303C417.516 334.971 416.483 336.643 416.326 338.343C416.303 338.583 416.287 338.824 416.267 339.064L416.142 338.683C415.167 337.795 414.44 337.513 414.25 336.16C414.786 335.225 415.294 334.351 415.697 333.349C415.782 333.138 415.856 332.924 415.935 332.711Z"/>
	<path fill="#9F9B69" d="M512.06 382.095C513.066 382.12 512.533 382.038 513.645 382.42L514.117 384.77L513.532 385.143C513.375 385.094 513.221 385.031 513.06 384.994C511.75 384.695 510.872 384.592 509.66 383.931C510.196 382.822 511.003 382.66 512.06 382.095Z"/>
	<path fill="#9F9B69" d="M279.42 301.503C280.102 302.358 280.488 303.02 280.855 304.05C280.086 305.309 279.744 305.256 278.34 305.787L276.999 304.797L276.979 303.85L279.42 301.503Z"/>
	<path fill="#9F9B69" d="M759.34 305.603L759.71 305.538L759.986 305.973L759.354 307.356C758.468 307.584 758.729 307.637 758.004 307.486C756.975 307.273 756.282 307.036 755.228 307.325C754.976 307.394 754.727 307.476 754.477 307.551C754.08 307.509 754.375 307.566 753.734 307.039C755.249 305.758 757.425 305.631 759.34 305.603Z"/>
	<path fill="#9F9B69" d="M373.891 837.203L374.823 838.092L374.627 839.03L373.439 839.735C373.466 839.754 373.501 839.763 373.519 839.791C374.211 840.838 373.343 839.812 374.502 841.067L375.136 841.742L374.7 841.964C373.576 841.91 372.616 841.791 371.528 841.504C371.287 840.258 372.857 839.02 373.512 837.878L373.891 837.203Z"/>
	<path fill="#9F9B69" d="M708.681 318.727C709.36 319.042 709.624 319.295 710.144 319.813C709.521 321.422 707.805 322.296 706.431 323.327C705.921 323.089 705.427 322.718 704.951 322.414L705.078 321.683C706.599 321.005 707.444 320.451 708.432 319.086C708.517 318.968 708.598 318.847 708.681 318.727Z"/>
	<path fill="#9F9B69" d="M702.465 156.626C702.98 157.522 703.02 157.769 703.105 158.756C702.279 159.956 702.05 160.101 700.731 160.738L699.781 158.12L700.212 157.233L702.465 156.626Z"/>
	<path fill="#868252" d="M187.668 136.84C187.252 135.346 187.345 135.4 188.051 133.999C189.231 133.469 189.185 133.399 190.401 133.797C190.713 134.479 191.267 135.472 191.072 136.259C191.012 136.497 190.883 136.713 190.789 136.94C189.619 136.356 188.9 136.614 187.668 136.84Z"/>
	<path fill="#9F9B69" d="M681.342 696.918L681.756 697.338C681.904 698.437 682.178 699.57 681.742 700.63C681.411 701.434 680.308 701.45 679.543 701.682L678.41 700.542C678.622 699.219 680.383 697.906 681.342 696.918Z"/>
	<path fill="#868252" d="M358.977 867.014C359.728 867.55 360.28 868.145 360.893 868.831C360.932 870.424 360.575 870.882 359.849 872.265L359.147 871.774C358.486 870.5 358.305 869.456 358.125 868.062L358.977 867.014Z"/>
	<path fill="#9F9B69" d="M462.91 872.194C463.955 872.554 464.358 872.918 465.082 873.746C465.428 875.292 464.753 876.419 464.148 877.8L463.601 877.797L463.135 877.312C462.863 875.52 462.752 874.002 462.91 872.194Z"/>
	<path fill="#9F9B69" d="M513.709 480.967L514.126 480.761C514.602 481.646 515.172 482.503 515.185 483.537C515.193 484.225 515.098 484.053 514.488 484.558C513.398 484.166 512.314 483.759 511.235 483.336C511.979 482.757 512.631 482.227 513.256 481.514C513.412 481.336 513.558 481.149 513.709 480.967Z"/>
	<path fill="#9F9B69" d="M307.765 669.365C308.546 670.744 308.307 670.901 307.974 672.48C306.753 672.977 306.026 672.03 303.957 672.538L303.91 672.296L302.766 671.859L303.537 671.509L303.557 670.376C304.88 670.114 304.955 670.949 306.291 670.942L307.765 669.365Z"/>
	<path fill="#868252" d="M518.879 527.557C520.134 527.667 520.798 527.457 521.721 528.385C521.513 529.867 521.512 531.216 521.583 532.709L521.245 532.82C519.891 531.949 519.409 529.131 518.879 527.557Z"/>
	<path fill="#9F9B69" d="M626.086 713.982C626.896 714.269 627.781 714.926 628.54 715.36L628.523 716.14L626.418 717.513L626.43 718.179C625.744 718.07 625.495 717.825 624.944 717.424C625.392 716.573 625.699 715.831 625.899 714.894L626.086 713.982Z"/>
	<path fill="#9F9B69" d="M327.466 635.952C328.012 635.965 328.559 635.984 329.104 636.009C331.171 636.118 331.701 636.168 333.15 637.751C331.219 637.869 329.055 638.331 327.352 637.372L327.466 635.952Z"/>
	<path fill="#868252" d="M479.793 321.803L481.367 323.333C481.624 324.372 481.825 325.17 481.702 326.241C480.674 325.628 479.6 325.108 478.532 324.567L478.348 323.649L479.793 321.803Z"/>
	<path fill="#9F9B69" d="M557.919 859.209L558.607 859.492L558.867 860.208C558.145 861.697 557.503 862.852 556.374 864.069C555.552 863.081 555.472 862.984 555.339 861.713C556.003 860.248 556.579 859.969 557.919 859.209Z"/>
	<path fill="#9F9B69" d="M590.206 355.426L591.558 357.063C591.557 358.402 590.697 358.836 589.806 359.775L588.354 358.582C588.299 357.041 589.208 356.552 590.206 355.426Z"/>
	<path fill="#868252" d="M535.549 864.341C537.17 865.226 539.049 866.913 539.635 868.676L539 869.48L538.364 869.676C536.72 868.026 536.04 866.608 535.549 864.341Z"/>
	<path fill="#9F9B69" d="M497.43 871.753L498.717 872.658C499.079 873.441 499.135 873.713 498.989 874.601C498.944 874.873 498.874 875.14 498.82 875.41L498.674 876.162L497.975 876.499L496.635 877.234L496.31 876.655C496.888 875.143 497.196 873.88 497.376 872.27L497.43 871.753Z"/>
	<path fill="#868252" d="M575.938 857.41L580.64 859.335L580.238 860.04C578.956 860.262 577.535 860.157 576.275 859.84C575.396 859.618 575.731 859.753 575.173 858.822L575.938 857.41Z"/>
	<path fill="#9F9B69" d="M619.672 258.402C619.953 258.812 620.157 259.462 620.353 259.925C621.168 260.506 621.732 260.857 622.304 261.694L620.683 262.371L618.6 262.204L618.257 261.51C618.613 260.354 619.087 259.45 619.672 258.402Z"/>
	<path fill="#868252" d="M539.26 297.784L541.417 298.501L541.387 298.719C542.063 300.317 542.447 299.392 543.635 300.423L543.412 300.736C541.905 301.252 541.716 301.285 540.172 300.915C539.113 299.619 539.255 299.485 539.26 297.784Z"/>
	<path fill="#9F9B69" d="M519.642 316.866C520.289 317.344 520.88 318.006 521.468 318.561C521.633 319.942 521.33 320.144 520.622 321.368C519.873 321.634 520.307 321.564 519.305 321.425C518.856 319.866 519.322 318.41 519.642 316.866Z"/>
	<defs>
		<linearGradient id="gradient_10" gradientUnits="userSpaceOnUse" x1="190.18188" y1="186.59338" x2="192.36803" y2="186.34384">
			<stop offset="0" stop-color="#989262"/>
			<stop offset="1" stop-color="#706E45"/>
		</linearGradient>
	</defs>
	<path fill="url(#gradient_10)" d="M190.195 183.917C191.954 185.147 192.124 185.886 192.845 187.809L192.347 188.337L191.112 189.443C190.133 188.412 190.293 185.312 190.195 183.917Z"/>
	<defs>
		<linearGradient id="gradient_11" gradientUnits="userSpaceOnUse" x1="719.58374" y1="314.6553" x2="720.62744" y2="317.93658">
			<stop offset="0" stop-color="#A4A371"/>
			<stop offset="1" stop-color="#868258"/>
		</linearGradient>
	</defs>
	<path fill="url(#gradient_11)" d="M718.117 315.199C718.209 315.252 718.295 315.32 718.394 315.358C720.236 316.065 721.58 316.334 722.822 318.062C721.526 318.318 720.807 318.328 719.529 317.985C718.234 316.88 718.332 316.903 718.117 315.199Z"/>
	<path fill="#9F9B69" d="M590.234 850.299L591.684 851.42C591.94 852.863 591.41 853.137 590.662 854.314L589.039 853.982C588.712 852.525 589.573 851.599 590.234 850.299Z"/>
	<path fill="#868252" d="M246.426 249.517C247.643 249.614 248.832 249.777 250.039 249.953L250.504 250.686L249.791 251.968C248.562 251.686 247.43 251.504 246.39 250.743L246.426 249.517Z"/>
	<path fill="#9F9B69" d="M660.918 663.694L663.555 664.338C664.561 665.455 664.408 665.863 664.523 667.324L663.514 667.349C662.245 666.515 661.636 664.99 660.918 663.694Z"/>
	<path fill="#9F9B69" d="M409.011 251.507L409.859 252.32C410.226 253.7 410.02 253.754 409.375 255.058C408.674 254.955 407.973 254.845 407.275 254.727L407.026 254.121L409.011 251.507Z"/>
	<path fill="#9F9B69" d="M539.26 297.784C539.893 296.269 541.011 295.554 542.329 294.642C542.25 295.338 542.145 295.681 541.842 296.319C541.466 297.11 541.446 297.642 541.417 298.501L539.26 297.784Z"/>
	<path fill="#9F9B69" d="M400.004 159.403C400.446 159.652 401.212 160.014 401.577 160.406C402.478 161.375 402.496 162.306 402.509 163.558C402.106 163.349 401.392 163.006 401.065 162.714C399.998 161.762 400.12 160.692 400.004 159.403Z"/>
	<path fill="#9F9B69" d="M729.571 327.674C730.006 327.793 730.361 327.863 730.759 328.117C731.954 328.882 732.281 329.854 732.636 331.148C731.853 331.048 731.07 330.875 730.296 330.73C729.406 329.553 729.583 329.115 729.571 327.674Z"/>
	<defs>
		<linearGradient id="gradient_12" gradientUnits="userSpaceOnUse" x1="238.26576" y1="120.92013" x2="239.13008" y2="118.38535">
			<stop offset="0" stop-color="#94905C"/>
			<stop offset="1" stop-color="#737049"/>
		</linearGradient>
	</defs>
	<path fill="url(#gradient_12)" d="M238.245 117.754C238.373 117.861 238.541 117.933 238.631 118.074C239.286 119.095 240.122 120.494 240.521 121.633C239.671 121.717 238.926 121.516 238.09 121.365C237.437 120.098 237.964 119.114 238.245 117.754Z"/>
	<path fill="#868252" d="M762.999 299.68L764.057 300.033C764.715 301.469 764.776 302.28 764.764 303.815C764.019 303.542 763.55 303.207 762.908 302.753C762.527 301.418 762.67 301.051 762.999 299.68Z"/>
	<path fill="#9F9B69" d="M817.761 181.478L818.669 182.202C819.047 183.632 818.882 183.771 818.327 185.169C817.274 184.602 817.078 184.712 816.539 183.582L817.761 181.478Z"/>
	<path fill="#9F9B69" d="M321.242 657.167L321.665 657.259C321.711 658.642 320.875 659.154 320.022 660.187L318.837 659.936L318.5 659.236C319.223 657.956 319.957 657.745 321.242 657.167Z"/>
	<path fill="#9F9B69" d="M562.682 226.966L566.266 227.28L566.82 228.359C565.864 228.777 564.969 228.896 563.942 229.043C562.879 228.363 563.005 228.209 562.682 226.966Z"/>
	<path fill="#868252" d="M240.596 864.631C241.808 865.135 242.022 864.964 242.676 866.173L242.127 867.333L239.528 866.404L239.482 865.6L240.596 864.631Z"/>
	<defs>
		<linearGradient id="gradient_13" gradientUnits="userSpaceOnUse" x1="278.91373" y1="703.98163" x2="278.36072" y2="706.57684">
			<stop offset="0" stop-color="#9C9463"/>
			<stop offset="1" stop-color="#7E7D51"/>
		</linearGradient>
	</defs>
	<path fill="url(#gradient_13)" d="M278.586 704.015C279.368 704.616 279.032 704.494 279.942 704.7C280.146 704.746 280.353 704.778 280.559 704.817L280.782 705.422L279.445 705.559L278.744 706.526L278.543 706.988C277.812 706.285 277.628 705.921 277.413 704.931L278.586 704.015Z"/>
</svg>
